<?xml version="1.0" encoding="utf-8"?>
<!-- Generator: Adobe Illustrator 16.0.4, SVG Export Plug-In . SVG Version: 6.00 Build 0)  -->
<!DOCTYPE svg PUBLIC "-//W3C//DTD SVG 1.1//EN" "http://www.w3.org/Graphics/SVG/1.1/DTD/svg11.dtd">
<svg version="1.1" id="Layer_1" xmlns="http://www.w3.org/2000/svg" xmlns:xlink="http://www.w3.org/1999/xlink" x="0px" y="0px"
	 width="307.035px" height="129.123px" viewBox="0 0 307.035 129.123" enable-background="new 0 0 307.035 129.123"
	 xml:space="preserve">
<g>
	<g>
		<g>
			<polygon fill="#06357A" points="7.532,0 9.844,4.708 15.035,5.464 11.283,9.131 12.165,14.304 7.532,11.862 2.873,14.304 
				3.766,9.131 0,5.464 5.2,4.708 			"/>
		</g>
		<g>
			<polygon fill="#F4DC00" points="88.341,51.192 60.47,69.116 71.667,96.987 43.069,79.035 14.089,97.038 25.722,68.535 
				8.051,15.771 34.225,47.397 43.069,25.552 53.433,51.192 			"/>
		</g>
		<g>
			<g>
				<defs>
					<polygon id="SVGID_1_" points="84.011,129.123 79.442,117.021 14.617,97.237 74.937,105.918 71.753,97.227 103.198,108.344 
						189.177,119.396 126.833,116.674 151.227,125.298 108.215,120.374 					"/>
				</defs>
				<clipPath id="SVGID_2_">
					<use xlink:href="#SVGID_1_"  overflow="visible"/>
				</clipPath>
				<polygon clip-path="url(#SVGID_2_)" fill="#06357A" points="14.688,97.226 14.617,97.237 14.617,97.226 				"/>
				<polygon clip-path="url(#SVGID_2_)" fill="#06357A" points="15.98,97.226 14.617,97.425 14.617,97.237 14.688,97.226 				"/>
				<polygon clip-path="url(#SVGID_2_)" fill="#0A367B" points="17.266,97.226 14.617,97.612 14.617,97.425 15.98,97.226 				"/>
				<polygon clip-path="url(#SVGID_2_)" fill="#0E387C" points="18.559,97.226 14.617,97.804 14.617,97.612 17.266,97.226 				"/>
				<polygon clip-path="url(#SVGID_2_)" fill="#12397D" points="19.848,97.226 14.617,97.991 14.617,97.804 18.559,97.226 				"/>
				<polygon clip-path="url(#SVGID_2_)" fill="#163B7E" points="21.137,97.226 14.617,98.179 14.617,97.991 19.848,97.226 				"/>
				<polygon clip-path="url(#SVGID_2_)" fill="#193C7F" points="22.426,97.226 14.617,98.366 14.617,98.179 21.137,97.226 				"/>
				<polygon clip-path="url(#SVGID_2_)" fill="#1D3E81" points="23.715,97.226 14.797,98.53 14.617,98.425 14.617,98.366 
					22.426,97.226 				"/>
				<polygon clip-path="url(#SVGID_2_)" fill="#203F82" points="25.004,97.226 15.051,98.679 14.797,98.53 23.715,97.226 				"/>
				<polygon clip-path="url(#SVGID_2_)" fill="#224183" points="26.297,97.226 15.309,98.831 15.051,98.679 25.004,97.226 				"/>
				<polygon clip-path="url(#SVGID_2_)" fill="#254284" points="27.582,97.226 15.562,98.983 15.309,98.831 26.297,97.226 				"/>
				<polygon clip-path="url(#SVGID_2_)" fill="#284485" points="28.875,97.226 15.82,99.132 15.562,98.983 27.582,97.226 				"/>
				<polygon clip-path="url(#SVGID_2_)" fill="#2A4586" points="30.16,97.226 16.074,99.284 15.82,99.132 28.875,97.226 				"/>
				<polygon clip-path="url(#SVGID_2_)" fill="#2C4787" points="31.453,97.226 16.332,99.437 16.074,99.284 30.16,97.226 				"/>
				<polygon clip-path="url(#SVGID_2_)" fill="#2F4888" points="32.738,97.226 16.59,99.585 16.332,99.437 31.453,97.226 				"/>
				<polygon clip-path="url(#SVGID_2_)" fill="#314989" points="34.031,97.226 16.844,99.737 16.59,99.585 32.738,97.226 				"/>
				<polygon clip-path="url(#SVGID_2_)" fill="#334B8A" points="35.32,97.226 17.102,99.886 16.844,99.737 34.031,97.226 				"/>
				<polygon clip-path="url(#SVGID_2_)" fill="#364C8B" points="36.605,97.226 17.355,100.038 17.102,99.886 35.32,97.226 				"/>
				<polygon clip-path="url(#SVGID_2_)" fill="#384E8C" points="37.898,97.226 17.613,100.187 17.355,100.038 36.605,97.226 				"/>
				<polygon clip-path="url(#SVGID_2_)" fill="#3A4F8D" points="39.184,97.226 17.871,100.339 17.613,100.187 37.898,97.226 				"/>
				<polygon clip-path="url(#SVGID_2_)" fill="#3C518E" points="40.477,97.226 18.125,100.491 17.871,100.339 39.184,97.226 				"/>
				<polygon clip-path="url(#SVGID_2_)" fill="#3E528F" points="41.762,97.226 18.383,100.64 18.125,100.491 40.477,97.226 				"/>
				<polygon clip-path="url(#SVGID_2_)" fill="#405390" points="43.055,97.226 18.637,100.792 18.383,100.64 41.762,97.226 				"/>
				<polygon clip-path="url(#SVGID_2_)" fill="#425591" points="44.34,97.226 18.895,100.944 18.637,100.792 43.055,97.226 				"/>
				<polygon clip-path="url(#SVGID_2_)" fill="#445692" points="45.633,97.226 19.148,101.093 18.895,100.944 44.34,97.226 				"/>
				<polygon clip-path="url(#SVGID_2_)" fill="#465894" points="46.918,97.226 19.406,101.245 19.148,101.093 45.633,97.226 				"/>
				<polygon clip-path="url(#SVGID_2_)" fill="#485995" points="48.215,97.226 19.66,101.397 19.406,101.245 46.918,97.226 				"/>
				<polygon clip-path="url(#SVGID_2_)" fill="#4A5A96" points="49.5,97.226 19.918,101.546 19.66,101.397 48.215,97.226 				"/>
				<polygon clip-path="url(#SVGID_2_)" fill="#4C5C97" points="50.793,97.226 20.176,101.698 19.918,101.546 49.5,97.226 				"/>
				<polygon clip-path="url(#SVGID_2_)" fill="#4E5D98" points="52.078,97.226 20.43,101.847 20.176,101.698 50.793,97.226 				"/>
				<polygon clip-path="url(#SVGID_2_)" fill="#505F99" points="53.371,97.226 20.688,101.999 20.43,101.847 52.078,97.226 				"/>
				<polygon clip-path="url(#SVGID_2_)" fill="#52609A" points="54.656,97.226 20.941,102.147 20.688,101.999 53.371,97.226 				"/>
				<polygon clip-path="url(#SVGID_2_)" fill="#53629B" points="55.949,97.226 21.199,102.3 20.941,102.147 54.656,97.226 				"/>
				<polygon clip-path="url(#SVGID_2_)" fill="#55639C" points="57.234,97.226 21.453,102.452 21.199,102.3 55.949,97.226 				"/>
				<polygon clip-path="url(#SVGID_2_)" fill="#57649D" points="58.527,97.226 21.711,102.601 21.453,102.452 57.234,97.226 				"/>
				<polygon clip-path="url(#SVGID_2_)" fill="#59669E" points="59.816,97.226 21.969,102.753 21.711,102.601 58.527,97.226 				"/>
				<polygon clip-path="url(#SVGID_2_)" fill="#5A679F" points="61.105,97.226 22.223,102.905 21.969,102.753 59.816,97.226 				"/>
				<polygon clip-path="url(#SVGID_2_)" fill="#5C69A0" points="62.395,97.226 22.48,103.054 22.223,102.905 61.105,97.226 				"/>
				<polygon clip-path="url(#SVGID_2_)" fill="#5E6AA1" points="63.684,97.226 22.734,103.206 22.48,103.054 62.395,97.226 				"/>
				<polygon clip-path="url(#SVGID_2_)" fill="#5F6CA2" points="64.973,97.226 22.992,103.358 22.734,103.206 63.684,97.226 				"/>
				<polygon clip-path="url(#SVGID_2_)" fill="#616DA3" points="66.266,97.226 23.246,103.507 22.992,103.358 64.973,97.226 				"/>
				<polygon clip-path="url(#SVGID_2_)" fill="#636EA4" points="67.551,97.226 23.504,103.659 23.246,103.507 66.266,97.226 				"/>
				<polygon clip-path="url(#SVGID_2_)" fill="#6570A5" points="68.844,97.226 23.762,103.812 23.504,103.659 67.551,97.226 				"/>
				<polygon clip-path="url(#SVGID_2_)" fill="#6671A6" points="70.129,97.226 24.016,103.96 23.762,103.812 68.844,97.226 				"/>
				<polygon clip-path="url(#SVGID_2_)" fill="#6873A7" points="71.422,97.226 24.273,104.112 24.016,103.96 70.129,97.226 				"/>
				<polygon clip-path="url(#SVGID_2_)" fill="#6974A8" points="72.707,97.226 24.527,104.261 24.273,104.112 71.422,97.226 				"/>
				<polygon clip-path="url(#SVGID_2_)" fill="#6B75A9" points="73.996,97.226 24.785,104.413 24.527,104.261 72.707,97.226 				"/>
				<polygon clip-path="url(#SVGID_2_)" fill="#6D77AA" points="75.285,97.226 25.039,104.562 24.785,104.413 73.996,97.226 				"/>
				<polygon clip-path="url(#SVGID_2_)" fill="#6E78AB" points="76.578,97.226 25.297,104.714 25.039,104.562 75.285,97.226 				"/>
				<polygon clip-path="url(#SVGID_2_)" fill="#707AAC" points="77.867,97.226 25.551,104.866 25.297,104.714 76.578,97.226 				"/>
				<polygon clip-path="url(#SVGID_2_)" fill="#717BAD" points="79.156,97.226 25.809,105.015 25.551,104.866 77.867,97.226 				"/>
				<polygon clip-path="url(#SVGID_2_)" fill="#737CAE" points="80.445,97.226 26.066,105.167 25.809,105.015 79.156,97.226 				"/>
				<polygon clip-path="url(#SVGID_2_)" fill="#757EAF" points="81.734,97.226 26.32,105.319 26.066,105.167 80.445,97.226 				"/>
				<polygon clip-path="url(#SVGID_2_)" fill="#767FB0" points="83.023,97.226 26.578,105.468 26.32,105.319 81.734,97.226 				"/>
				<polygon clip-path="url(#SVGID_2_)" fill="#7881B1" points="84.312,97.226 26.832,105.62 26.578,105.468 83.023,97.226 				"/>
				<polygon clip-path="url(#SVGID_2_)" fill="#7982B2" points="85.602,97.226 27.09,105.772 26.832,105.62 84.312,97.226 				"/>
				<polygon clip-path="url(#SVGID_2_)" fill="#7B83B3" points="86.891,97.226 27.348,105.921 27.09,105.772 85.602,97.226 				"/>
				<polygon clip-path="url(#SVGID_2_)" fill="#7C85B4" points="88.18,97.226 27.602,106.073 27.348,105.921 86.891,97.226 				"/>
				<polygon clip-path="url(#SVGID_2_)" fill="#7E86B5" points="89.469,97.226 27.859,106.226 27.602,106.073 88.18,97.226 				"/>
				<polygon clip-path="url(#SVGID_2_)" fill="#7F88B6" points="90.762,97.226 28.113,106.374 27.859,106.226 89.469,97.226 				"/>
				<polygon clip-path="url(#SVGID_2_)" fill="#8189B7" points="92.051,97.226 28.371,106.526 28.113,106.374 90.762,97.226 				"/>
				<polygon clip-path="url(#SVGID_2_)" fill="#828AB7" points="93.34,97.226 28.625,106.675 28.371,106.526 92.051,97.226 				"/>
				<polygon clip-path="url(#SVGID_2_)" fill="#848CB8" points="94.625,97.226 28.883,106.827 28.625,106.675 93.34,97.226 				"/>
				<polygon clip-path="url(#SVGID_2_)" fill="#858DB9" points="95.918,97.226 29.137,106.976 28.883,106.827 94.625,97.226 				"/>
				<polygon clip-path="url(#SVGID_2_)" fill="#878FBA" points="97.203,97.226 29.395,107.128 29.137,106.976 95.918,97.226 				"/>
				<polygon clip-path="url(#SVGID_2_)" fill="#8890BB" points="98.496,97.226 29.652,107.28 29.395,107.128 97.203,97.226 				"/>
				<polygon clip-path="url(#SVGID_2_)" fill="#8A91BC" points="99.781,97.226 29.906,107.429 29.652,107.28 98.496,97.226 				"/>
				<polygon clip-path="url(#SVGID_2_)" fill="#8B93BD" points="101.074,97.226 30.164,107.581 29.906,107.429 99.781,97.226 				
					"/>
				<polygon clip-path="url(#SVGID_2_)" fill="#8D94BE" points="102.363,97.226 30.418,107.733 30.164,107.581 101.074,97.226 				
					"/>
				<polygon clip-path="url(#SVGID_2_)" fill="#8E95BF" points="103.652,97.226 30.676,107.882 30.418,107.733 102.363,97.226 				
					"/>
				<polygon clip-path="url(#SVGID_2_)" fill="#9097C0" points="104.941,97.226 30.93,108.034 30.676,107.882 103.652,97.226 				
					"/>
				<polygon clip-path="url(#SVGID_2_)" fill="#9198C1" points="106.234,97.226 31.188,108.187 30.93,108.034 104.941,97.226 				
					"/>
				<polygon clip-path="url(#SVGID_2_)" fill="#9399C1" points="107.52,97.226 31.441,108.335 31.188,108.187 106.234,97.226 				
					"/>
				<polygon clip-path="url(#SVGID_2_)" fill="#949BC2" points="108.812,97.226 31.699,108.487 31.441,108.335 107.52,97.226 				
					"/>
				<polygon clip-path="url(#SVGID_2_)" fill="#959CC3" points="110.098,97.226 31.957,108.636 31.699,108.487 108.812,97.226 				
					"/>
				<polygon clip-path="url(#SVGID_2_)" fill="#979DC4" points="111.391,97.226 32.211,108.788 31.957,108.636 110.098,97.226 				
					"/>
				<polygon clip-path="url(#SVGID_2_)" fill="#989EC5" points="112.676,97.226 32.469,108.937 32.211,108.788 111.391,97.226 				
					"/>
				<polygon clip-path="url(#SVGID_2_)" fill="#9AA0C6" points="113.969,97.226 32.723,109.089 32.469,108.937 112.676,97.226 				
					"/>
				<polygon clip-path="url(#SVGID_2_)" fill="#9BA1C7" points="115.254,97.226 32.98,109.241 32.723,109.089 113.969,97.226 				
					"/>
				<polygon clip-path="url(#SVGID_2_)" fill="#9CA2C7" points="116.551,97.226 33.238,109.39 32.98,109.241 115.254,97.226 				"/>
				<polygon clip-path="url(#SVGID_2_)" fill="#9EA4C8" points="117.836,97.226 33.492,109.542 33.238,109.39 116.551,97.226 				
					"/>
				<polygon clip-path="url(#SVGID_2_)" fill="#9FA5C9" points="119.129,97.226 33.75,109.694 33.492,109.542 117.836,97.226 				
					"/>
				<polygon clip-path="url(#SVGID_2_)" fill="#A1A6CA" points="120.414,97.226 34.004,109.843 33.75,109.694 119.129,97.226 				
					"/>
				<polygon clip-path="url(#SVGID_2_)" fill="#A2A7CB" points="121.707,97.226 34.262,109.995 34.004,109.843 120.414,97.226 				
					"/>
				<polygon clip-path="url(#SVGID_2_)" fill="#A3A9CC" points="122.992,97.226 34.516,110.147 34.262,109.995 121.707,97.226 				
					"/>
				<polygon clip-path="url(#SVGID_2_)" fill="#A5AACC" points="124.285,97.226 34.773,110.296 34.516,110.147 122.992,97.226 				
					"/>
				<polygon clip-path="url(#SVGID_2_)" fill="#A6ABCD" points="125.57,97.226 35.027,110.448 34.773,110.296 124.285,97.226 				
					"/>
				<polygon clip-path="url(#SVGID_2_)" fill="#A7ACCE" points="126.863,97.226 35.285,110.601 35.027,110.448 125.57,97.226 				
					"/>
				<polygon clip-path="url(#SVGID_2_)" fill="#A9ADCF" points="128.148,97.226 35.543,110.749 35.285,110.601 126.863,97.226 				
					"/>
				<polygon clip-path="url(#SVGID_2_)" fill="#AAAFCF" points="129.438,97.226 35.797,110.901 35.543,110.749 128.148,97.226 				
					"/>
				<polygon clip-path="url(#SVGID_2_)" fill="#ABB0D0" points="130.73,97.226 36.055,111.05 35.797,110.901 129.438,97.226 				"/>
				<polygon clip-path="url(#SVGID_2_)" fill="#ACB1D1" points="132.016,97.226 36.309,111.202 36.055,111.05 130.73,97.226 				"/>
				<polygon clip-path="url(#SVGID_2_)" fill="#AEB2D2" points="133.309,97.226 36.566,111.351 36.309,111.202 132.016,97.226 				
					"/>
				<polygon clip-path="url(#SVGID_2_)" fill="#AFB3D2" points="134.594,97.226 36.824,111.503 36.566,111.351 133.309,97.226 				
					"/>
				<polygon clip-path="url(#SVGID_2_)" fill="#B0B4D3" points="135.887,97.226 37.078,111.655 36.824,111.503 134.594,97.226 				
					"/>
				<polygon clip-path="url(#SVGID_2_)" fill="#B1B6D4" points="137.172,97.226 37.336,111.804 37.078,111.655 135.887,97.226 				
					"/>
				<polygon clip-path="url(#SVGID_2_)" fill="#B3B7D4" points="138.465,97.226 37.59,111.956 37.336,111.804 137.172,97.226 				
					"/>
				<polygon clip-path="url(#SVGID_2_)" fill="#B4B8D5" points="139.754,97.226 37.848,112.108 37.59,111.956 138.465,97.226 				
					"/>
				<polygon clip-path="url(#SVGID_2_)" fill="#B5B9D6" points="141.043,97.226 38.102,112.257 37.848,112.108 139.754,97.226 				
					"/>
				<polygon clip-path="url(#SVGID_2_)" fill="#B6BAD6" points="142.332,97.226 38.359,112.409 38.102,112.257 141.043,97.226 				
					"/>
				<polygon clip-path="url(#SVGID_2_)" fill="#B7BBD7" points="143.621,97.226 38.613,112.562 38.359,112.409 142.332,97.226 				
					"/>
				<polygon clip-path="url(#SVGID_2_)" fill="#B8BCD8" points="144.91,97.226 38.871,112.71 38.613,112.562 143.621,97.226 				"/>
				<polygon clip-path="url(#SVGID_2_)" fill="#BABDD8" points="146.203,97.226 39.129,112.862 38.871,112.71 144.91,97.226 				"/>
				<polygon clip-path="url(#SVGID_2_)" fill="#BBBED9" points="147.488,97.226 39.383,113.015 39.129,112.862 146.203,97.226 				
					"/>
				<polygon clip-path="url(#SVGID_2_)" fill="#BCBFDA" points="148.781,97.226 39.641,113.163 39.383,113.015 147.488,97.226 				
					"/>
				<polygon clip-path="url(#SVGID_2_)" fill="#BDC0DA" points="150.066,97.226 39.895,113.315 39.641,113.163 148.781,97.226 				
					"/>
				<polygon clip-path="url(#SVGID_2_)" fill="#BEC1DB" points="151.359,97.226 40.152,113.464 39.895,113.315 150.066,97.226 				
					"/>
				<polygon clip-path="url(#SVGID_2_)" fill="#BFC2DC" points="152.645,97.226 40.406,113.616 40.152,113.464 151.359,97.226 				
					"/>
				<polygon clip-path="url(#SVGID_2_)" fill="#C0C3DC" points="153.555,97.226 153.629,97.272 40.664,113.765 40.406,113.616 
					152.645,97.226 				"/>
				<polygon clip-path="url(#SVGID_2_)" fill="#C1C4DD" points="153.629,97.272 153.887,97.421 40.918,113.917 40.664,113.765 				
					"/>
				<polygon clip-path="url(#SVGID_2_)" fill="#C2C5DD" points="153.887,97.421 154.145,97.573 41.176,114.069 40.918,113.917 				
					"/>
				<polygon clip-path="url(#SVGID_2_)" fill="#C3C6DE" points="154.145,97.573 154.398,97.726 41.434,114.218 41.176,114.069 				
					"/>
				<polygon clip-path="url(#SVGID_2_)" fill="#C4C7DE" points="154.398,97.726 154.656,97.874 41.688,114.37 41.434,114.218 				
					"/>
				<polygon clip-path="url(#SVGID_2_)" fill="#C5C8DF" points="154.656,97.874 154.91,98.026 41.945,114.522 41.688,114.37 				"/>
				<polygon clip-path="url(#SVGID_2_)" fill="#C6C9E0" points="154.91,98.026 155.168,98.179 42.199,114.671 41.945,114.522 				
					"/>
				<polygon clip-path="url(#SVGID_2_)" fill="#C7CAE0" points="155.168,98.179 155.422,98.327 42.457,114.823 42.199,114.671 				
					"/>
				<polygon clip-path="url(#SVGID_2_)" fill="#C8CBE1" points="155.422,98.327 155.68,98.479 42.715,114.976 42.457,114.823 				
					"/>
				<polygon clip-path="url(#SVGID_2_)" fill="#C9CCE1" points="155.68,98.479 155.934,98.628 42.969,115.124 42.715,114.976 				
					"/>
				<polygon clip-path="url(#SVGID_2_)" fill="#CACDE2" points="155.934,98.628 156.191,98.78 43.227,115.276 42.969,115.124 				
					"/>
				<polygon clip-path="url(#SVGID_2_)" fill="#CBCEE2" points="156.191,98.78 156.449,98.929 43.48,115.425 43.227,115.276 				"/>
				<polygon clip-path="url(#SVGID_2_)" fill="#CCCFE3" points="156.449,98.929 156.703,99.081 43.738,115.577 43.48,115.425 				
					"/>
				<polygon clip-path="url(#SVGID_2_)" fill="#CDD0E3" points="156.703,99.081 156.961,99.233 43.992,115.726 43.738,115.577 				
					"/>
				<polygon clip-path="url(#SVGID_2_)" fill="#CED0E4" points="156.961,99.233 157.215,99.382 44.25,115.878 43.992,115.726 				
					"/>
				<polygon clip-path="url(#SVGID_2_)" fill="#CFD1E4" points="157.215,99.382 157.473,99.534 44.504,116.03 44.25,115.878 				"/>
				<polygon clip-path="url(#SVGID_2_)" fill="#D0D2E5" points="157.473,99.534 157.73,99.687 44.762,116.179 44.504,116.03 				"/>
				<polygon clip-path="url(#SVGID_2_)" fill="#D1D3E5" points="157.73,99.687 157.984,99.835 45.02,116.331 44.762,116.179 				"/>
				<polygon clip-path="url(#SVGID_2_)" fill="#D2D4E6" points="157.984,99.835 158.238,99.987 45.273,116.483 45.02,116.331 				
					"/>
				<polygon clip-path="url(#SVGID_2_)" fill="#D3D5E6" points="158.238,99.987 158.496,100.14 45.531,116.632 45.273,116.483 				
					"/>
				<polygon clip-path="url(#SVGID_2_)" fill="#D4D5E7" points="158.496,100.14 158.754,100.288 45.785,116.784 45.531,116.632 				
					"/>
				<polygon clip-path="url(#SVGID_2_)" fill="#D4D6E7" points="158.754,100.288 159.008,100.44 46.043,116.937 45.785,116.784 				
					"/>
				<polygon clip-path="url(#SVGID_2_)" fill="#D5D7E8" points="159.008,100.44 159.266,100.593 46.301,117.085 46.043,116.937 				
					"/>
				<polygon clip-path="url(#SVGID_2_)" fill="#D6D8E8" points="159.266,100.593 159.52,100.741 46.555,117.237 46.301,117.085 				
					"/>
				<polygon clip-path="url(#SVGID_2_)" fill="#D7D9E9" points="159.52,100.741 159.777,100.894 46.812,117.39 46.555,117.237 				
					"/>
				<polygon clip-path="url(#SVGID_2_)" fill="#D8D9E9" points="159.777,100.894 160.035,101.042 47.066,117.538 46.812,117.39 				
					"/>
				<polygon clip-path="url(#SVGID_2_)" fill="#D9DAEA" points="160.035,101.042 160.289,101.194 47.324,117.69 47.066,117.538 				
					"/>
				<polygon clip-path="url(#SVGID_2_)" fill="#D9DBEA" points="160.289,101.194 160.547,101.343 47.578,117.839 47.324,117.69 				
					"/>
				<polygon clip-path="url(#SVGID_2_)" fill="#DADCEA" points="160.547,101.343 160.801,101.495 47.836,117.991 47.578,117.839 
									"/>
				<polygon clip-path="url(#SVGID_2_)" fill="#DBDCEB" points="160.801,101.495 161.059,101.647 48.09,118.14 47.836,117.991 				
					"/>
				<polygon clip-path="url(#SVGID_2_)" fill="#DCDDEB" points="161.059,101.647 161.316,101.796 48.348,118.292 48.09,118.14 				
					"/>
				<polygon clip-path="url(#SVGID_2_)" fill="#DDDEEC" points="161.316,101.796 161.57,101.948 48.605,118.444 48.348,118.292 				
					"/>
				<polygon clip-path="url(#SVGID_2_)" fill="#DDDEEC" points="161.57,101.948 161.824,102.101 48.859,118.593 48.605,118.444 				
					"/>
				<polygon clip-path="url(#SVGID_2_)" fill="#DEDFEC" points="161.824,102.101 162.082,102.249 49.117,118.745 48.859,118.593 
									"/>
				<polygon clip-path="url(#SVGID_2_)" fill="#DFE0ED" points="162.082,102.249 162.34,102.401 49.371,118.897 49.117,118.745 				
					"/>
				<polygon clip-path="url(#SVGID_2_)" fill="#DFE0ED" points="162.34,102.401 162.594,102.554 49.629,119.046 49.371,118.897 				
					"/>
				<polygon clip-path="url(#SVGID_2_)" fill="#E0E1EE" points="162.594,102.554 162.852,102.702 49.883,119.198 49.629,119.046 
									"/>
				<polygon clip-path="url(#SVGID_2_)" fill="#E1E2EE" points="162.852,102.702 163.105,102.854 50.141,119.351 49.883,119.198 
									"/>
				<polygon clip-path="url(#SVGID_2_)" fill="#E1E2EE" points="163.105,102.854 163.363,103.003 50.395,119.499 50.141,119.351 
									"/>
				<polygon clip-path="url(#SVGID_2_)" fill="#E2E3EF" points="163.363,103.003 163.621,103.155 50.652,119.651 50.395,119.499 
									"/>
				<polygon clip-path="url(#SVGID_2_)" fill="#E3E4EF" points="163.621,103.155 163.875,103.304 50.91,119.804 50.652,119.651 				
					"/>
				<polygon clip-path="url(#SVGID_2_)" fill="#E3E4EF" points="163.875,103.304 164.133,103.456 51.164,119.952 50.91,119.804 				
					"/>
				<polygon clip-path="url(#SVGID_2_)" fill="#E4E5F0" points="164.133,103.456 164.387,103.608 51.422,120.101 51.164,119.952 
									"/>
				<polygon clip-path="url(#SVGID_2_)" fill="#E5E5F0" points="164.387,103.608 164.645,103.757 51.676,120.253 51.422,120.101 
									"/>
				<polygon clip-path="url(#SVGID_2_)" fill="#E5E6F0" points="164.645,103.757 164.898,103.909 51.934,120.405 51.676,120.253 
									"/>
				<polygon clip-path="url(#SVGID_2_)" fill="#E6E7F1" points="164.898,103.909 165.156,104.062 52.191,120.554 51.934,120.405 
									"/>
				<polygon clip-path="url(#SVGID_2_)" fill="#E6E7F1" points="165.156,104.062 165.41,104.21 52.445,120.706 52.191,120.554 				
					"/>
				<polygon clip-path="url(#SVGID_2_)" fill="#E7E8F1" points="165.41,104.21 165.668,104.362 52.703,120.858 52.445,120.706 				
					"/>
				<polygon clip-path="url(#SVGID_2_)" fill="#E8E8F2" points="165.668,104.362 165.926,104.515 52.957,121.007 52.703,120.858 
									"/>
				<polygon clip-path="url(#SVGID_2_)" fill="#E8E9F2" points="165.926,104.515 166.18,104.663 53.215,121.159 52.957,121.007 				
					"/>
				<polygon clip-path="url(#SVGID_2_)" fill="#E9E9F2" points="166.18,104.663 166.438,104.815 53.469,121.312 53.215,121.159 				
					"/>
				<polygon clip-path="url(#SVGID_2_)" fill="#E9EAF3" points="166.438,104.815 166.691,104.968 53.727,121.46 53.469,121.312 				
					"/>
				<polygon clip-path="url(#SVGID_2_)" fill="#EAEAF3" points="166.691,104.968 166.949,105.116 53.98,121.612 53.727,121.46 				
					"/>
				<polygon clip-path="url(#SVGID_2_)" fill="#EAEBF3" points="166.949,105.116 167.207,105.269 54.238,121.765 53.98,121.612 				
					"/>
				<polygon clip-path="url(#SVGID_2_)" fill="#EBEBF4" points="167.207,105.269 167.461,105.417 54.496,121.913 54.238,121.765 
									"/>
				<polygon clip-path="url(#SVGID_2_)" fill="#EBECF4" points="167.461,105.417 167.715,105.569 54.75,122.065 54.496,121.913 				
					"/>
				<polygon clip-path="url(#SVGID_2_)" fill="#ECECF4" points="167.715,105.569 167.973,105.718 55.008,122.214 54.75,122.065 				
					"/>
				<polygon clip-path="url(#SVGID_2_)" fill="#ECEDF4" points="167.973,105.718 168.23,105.87 55.262,122.366 55.008,122.214 				
					"/>
				<polygon clip-path="url(#SVGID_2_)" fill="#EDEDF5" points="168.23,105.87 168.484,106.022 55.52,122.515 55.262,122.366 				
					"/>
				<polygon clip-path="url(#SVGID_2_)" fill="#EDEEF5" points="168.484,106.022 168.742,106.171 55.777,122.667 55.52,122.515 				
					"/>
				<polygon clip-path="url(#SVGID_2_)" fill="#EEEEF5" points="168.742,106.171 168.996,106.323 56.031,122.819 55.777,122.667 
									"/>
				<polygon clip-path="url(#SVGID_2_)" fill="#EEEFF6" points="168.996,106.323 169.254,106.476 56.289,122.968 56.031,122.819 
									"/>
				<polygon clip-path="url(#SVGID_2_)" fill="#EFEFF6" points="169.254,106.476 169.512,106.624 56.543,123.12 56.289,122.968 				
					"/>
				<polygon clip-path="url(#SVGID_2_)" fill="#EFF0F6" points="169.512,106.624 169.766,106.776 56.801,123.272 56.543,123.12 				
					"/>
				<polygon clip-path="url(#SVGID_2_)" fill="#F0F0F6" points="169.766,106.776 170.023,106.929 57.055,123.421 56.801,123.272 
									"/>
				<polygon clip-path="url(#SVGID_2_)" fill="#F0F0F7" points="170.023,106.929 170.277,107.077 57.312,123.573 57.055,123.421 
									"/>
				<polygon clip-path="url(#SVGID_2_)" fill="#F1F1F7" points="170.277,107.077 170.535,107.229 57.566,123.726 57.312,123.573 
									"/>
				<polygon clip-path="url(#SVGID_2_)" fill="#F1F1F7" points="170.535,107.229 170.793,107.382 57.824,123.874 57.566,123.726 
									"/>
				<polygon clip-path="url(#SVGID_2_)" fill="#F1F2F7" points="170.793,107.382 171.047,107.53 58.082,124.026 57.824,123.874 				
					"/>
				<polygon clip-path="url(#SVGID_2_)" fill="#F2F2F8" points="171.047,107.53 171.301,107.683 58.336,124.179 58.082,124.026 				
					"/>
				<polygon clip-path="url(#SVGID_2_)" fill="#F2F2F8" points="171.301,107.683 171.559,107.831 58.594,124.327 58.336,124.179 
									"/>
				<polygon clip-path="url(#SVGID_2_)" fill="#F3F3F8" points="171.559,107.831 171.816,107.983 58.848,124.479 58.594,124.327 
									"/>
				<polygon clip-path="url(#SVGID_2_)" fill="#F3F3F8" points="171.816,107.983 172.07,108.132 59.105,124.628 58.848,124.479 				
					"/>
				<polygon clip-path="url(#SVGID_2_)" fill="#F3F4F9" points="172.07,108.132 172.328,108.284 59.359,124.78 59.105,124.628 				
					"/>
				<polygon clip-path="url(#SVGID_2_)" fill="#F4F4F9" points="172.328,108.284 172.582,108.437 59.617,124.929 59.359,124.78 				
					"/>
				<polygon clip-path="url(#SVGID_2_)" fill="#F4F4F9" points="172.582,108.437 172.84,108.585 59.871,125.081 59.617,124.929 				
					"/>
				<polygon clip-path="url(#SVGID_2_)" fill="#F5F5F9" points="172.84,108.585 173.098,108.737 60.129,125.233 59.871,125.081 				
					"/>
				<polygon clip-path="url(#SVGID_2_)" fill="#F5F5F9" points="173.098,108.737 173.352,108.89 60.387,125.382 60.129,125.233 				
					"/>
				<polygon clip-path="url(#SVGID_2_)" fill="#F5F5FA" points="173.352,108.89 173.609,109.038 60.641,125.534 60.387,125.382 				
					"/>
				<polygon clip-path="url(#SVGID_2_)" fill="#F6F6FA" points="173.609,109.038 173.863,109.19 60.898,125.687 60.641,125.534 				
					"/>
				<polygon clip-path="url(#SVGID_2_)" fill="#F6F6FA" points="173.863,109.19 174.121,109.343 61.152,125.835 60.898,125.687 				
					"/>
				<polygon clip-path="url(#SVGID_2_)" fill="#F6F7FA" points="174.121,109.343 174.375,109.491 61.41,125.987 61.152,125.835 				
					"/>
				<polygon clip-path="url(#SVGID_2_)" fill="#F7F7FA" points="174.375,109.491 174.633,109.644 61.668,126.14 61.41,125.987 				
					"/>
				<polygon clip-path="url(#SVGID_2_)" fill="#F7F7FB" points="174.633,109.644 174.887,109.792 61.922,126.288 61.668,126.14 				
					"/>
				<polygon clip-path="url(#SVGID_2_)" fill="#F7F7FB" points="174.887,109.792 175.145,109.944 62.18,126.44 61.922,126.288 				
					"/>
				<polygon clip-path="url(#SVGID_2_)" fill="#F8F8FB" points="175.145,109.944 175.402,110.093 62.434,126.593 62.18,126.44 				
					"/>
				<polygon clip-path="url(#SVGID_2_)" fill="#F8F8FB" points="175.402,110.093 175.656,110.245 62.691,126.741 62.434,126.593 
									"/>
				<polygon clip-path="url(#SVGID_2_)" fill="#F8F8FB" points="175.656,110.245 175.914,110.397 62.945,126.89 62.691,126.741 				
					"/>
				<polygon clip-path="url(#SVGID_2_)" fill="#F9F9FB" points="175.914,110.397 176.168,110.546 63.203,127.042 62.945,126.89 				
					"/>
				<polygon clip-path="url(#SVGID_2_)" fill="#F9F9FC" points="176.168,110.546 176.426,110.698 63.457,127.194 63.203,127.042 
									"/>
				<polygon clip-path="url(#SVGID_2_)" fill="#F9F9FC" points="176.426,110.698 176.684,110.851 63.715,127.343 63.457,127.194 
									"/>
				<polygon clip-path="url(#SVGID_2_)" fill="#F9FAFC" points="176.684,110.851 176.938,110.999 63.973,127.495 63.715,127.343 
									"/>
				<polygon clip-path="url(#SVGID_2_)" fill="#FAFAFC" points="176.938,110.999 177.191,111.151 64.227,127.647 63.973,127.495 
									"/>
				<polygon clip-path="url(#SVGID_2_)" fill="#FAFAFC" points="177.191,111.151 177.449,111.304 64.484,127.796 64.227,127.647 
									"/>
				<polygon clip-path="url(#SVGID_2_)" fill="#FAFAFC" points="177.449,111.304 177.707,111.452 64.738,127.948 64.484,127.796 
									"/>
				<polygon clip-path="url(#SVGID_2_)" fill="#FBFBFD" points="177.707,111.452 177.961,111.604 64.996,128.101 64.738,127.948 
									"/>
				<polygon clip-path="url(#SVGID_2_)" fill="#FBFBFD" points="177.961,111.604 178.219,111.757 65.254,128.249 64.996,128.101 
									"/>
				<polygon clip-path="url(#SVGID_2_)" fill="#FBFBFD" points="178.219,111.757 178.473,111.905 65.508,128.401 65.254,128.249 
									"/>
				<polygon clip-path="url(#SVGID_2_)" fill="#FBFBFD" points="178.473,111.905 178.73,112.058 65.766,128.554 65.508,128.401 				
					"/>
				<polygon clip-path="url(#SVGID_2_)" fill="#FBFCFD" points="178.73,112.058 178.988,112.206 66.02,128.702 65.766,128.554 				
					"/>
				<polygon clip-path="url(#SVGID_2_)" fill="#FCFCFD" points="178.988,112.206 179.242,112.358 66.277,128.854 66.02,128.702 				
					"/>
				<polygon clip-path="url(#SVGID_2_)" fill="#FCFCFD" points="179.242,112.358 179.5,112.507 66.531,129.003 66.277,128.854 				
					"/>
				<polygon clip-path="url(#SVGID_2_)" fill="#FCFCFD" points="179.5,112.507 179.754,112.659 67.008,129.124 66.734,129.124 
					66.531,129.003 				"/>
				<polygon clip-path="url(#SVGID_2_)" fill="#FCFCFE" points="179.754,112.659 180.012,112.812 68.293,129.124 67.008,129.124 
									"/>
				<polygon clip-path="url(#SVGID_2_)" fill="#FCFDFE" points="180.012,112.812 180.27,112.96 69.59,129.124 68.293,129.124 				
					"/>
				<polygon clip-path="url(#SVGID_2_)" fill="#FDFDFE" points="180.27,112.96 180.523,113.112 70.875,129.124 69.59,129.124 				
					"/>
				<polygon clip-path="url(#SVGID_2_)" fill="#FDFDFE" points="180.523,113.112 180.777,113.265 72.168,129.124 70.875,129.124 
									"/>
				<polygon clip-path="url(#SVGID_2_)" fill="#FDFDFE" points="180.777,113.265 181.035,113.413 73.453,129.124 72.168,129.124 
									"/>
				<polygon clip-path="url(#SVGID_2_)" fill="#FDFDFE" points="181.035,113.413 181.293,113.565 74.746,129.124 73.453,129.124 
									"/>
				<polygon clip-path="url(#SVGID_2_)" fill="#FDFDFE" points="181.293,113.565 181.547,113.718 76.031,129.124 74.746,129.124 
									"/>
				<polygon clip-path="url(#SVGID_2_)" fill="#FDFDFE" points="181.547,113.718 181.805,113.866 77.324,129.124 76.031,129.124 
									"/>
				<polygon clip-path="url(#SVGID_2_)" fill="#FEFEFE" points="181.805,113.866 182.059,114.019 78.609,129.124 77.324,129.124 
									"/>
				<polygon clip-path="url(#SVGID_2_)" fill="#FEFEFE" points="182.059,114.019 182.316,114.171 79.902,129.124 78.609,129.124 
									"/>
				<polygon clip-path="url(#SVGID_2_)" fill="#FEFEFE" points="182.316,114.171 182.574,114.319 81.191,129.124 79.902,129.124 
									"/>
				<polygon clip-path="url(#SVGID_2_)" fill="#FEFEFE" points="182.574,114.319 182.828,114.468 82.48,129.124 81.191,129.124 				
					"/>
				<polygon clip-path="url(#SVGID_2_)" fill="#FEFEFE" points="182.828,114.468 183.086,114.62 83.77,129.124 82.48,129.124 				
					"/>
				<polygon clip-path="url(#SVGID_2_)" fill="#FEFEFF" points="183.086,114.62 183.34,114.772 85.059,129.124 83.77,129.124 				
					"/>
				<polygon clip-path="url(#SVGID_2_)" fill="#FEFEFF" points="183.34,114.772 183.598,114.921 86.348,129.124 85.059,129.124 				
					"/>
				<polygon clip-path="url(#SVGID_2_)" fill="#FEFEFF" points="183.598,114.921 183.852,115.073 87.637,129.124 86.348,129.124 
									"/>
				<polygon clip-path="url(#SVGID_2_)" fill="#FEFEFF" points="183.852,115.073 184.109,115.226 88.926,129.124 87.637,129.124 
									"/>
				<polygon clip-path="url(#SVGID_2_)" fill="#FEFEFF" points="184.109,115.226 184.363,115.374 90.219,129.124 88.926,129.124 
									"/>
				<polygon clip-path="url(#SVGID_2_)" fill="#FEFEFF" points="184.363,115.374 184.621,115.526 91.504,129.124 90.219,129.124 
									"/>
				<polygon clip-path="url(#SVGID_2_)" fill="#FFFFFF" points="184.621,115.526 184.879,115.679 92.797,129.124 91.504,129.124 
									"/>
				<polygon clip-path="url(#SVGID_2_)" fill="#FFFFFF" points="184.879,115.679 185.133,115.827 94.082,129.124 92.797,129.124 
									"/>
				<polygon clip-path="url(#SVGID_2_)" fill="#FFFFFF" points="185.133,115.827 185.391,115.979 95.375,129.124 94.082,129.124 
									"/>
				<polygon clip-path="url(#SVGID_2_)" fill="#FFFFFF" points="185.391,115.979 185.645,116.132 96.66,129.124 95.375,129.124 				
					"/>
				<polygon clip-path="url(#SVGID_2_)" fill="#FFFFFF" points="185.645,116.132 185.902,116.28 97.953,129.124 96.66,129.124 				
					"/>
				<polygon clip-path="url(#SVGID_2_)" fill="#FFFFFF" points="185.902,116.28 186.16,116.433 99.242,129.124 97.953,129.124 				
					"/>
				<polygon clip-path="url(#SVGID_2_)" fill="#FFFFFF" points="186.16,116.433 186.414,116.581 100.531,129.124 99.242,129.124 
									"/>
				<polygon clip-path="url(#SVGID_2_)" fill="#FFFFFF" points="186.414,116.581 186.668,116.733 101.82,129.124 100.531,129.124 
									"/>
				<polygon clip-path="url(#SVGID_2_)" fill="#FFFFFF" points="186.668,116.733 186.926,116.882 103.113,129.124 101.82,129.124 
									"/>
				<polygon clip-path="url(#SVGID_2_)" fill="#FFFFFF" points="186.926,116.882 187.184,117.034 104.398,129.124 103.113,129.124 
									"/>
				<polygon clip-path="url(#SVGID_2_)" fill="#FFFFFF" points="187.184,117.034 187.438,117.187 105.684,129.124 104.398,129.124 
									"/>
				<polygon clip-path="url(#SVGID_2_)" fill="#FFFFFF" points="187.438,117.187 187.695,117.335 106.977,129.124 105.684,129.124 
									"/>
				<polygon clip-path="url(#SVGID_2_)" fill="#FFFFFF" points="187.695,117.335 187.949,117.487 108.262,129.124 106.977,129.124 
									"/>
				<polygon clip-path="url(#SVGID_2_)" fill="#FFFFFF" points="187.949,117.487 188.207,117.64 109.559,129.124 108.262,129.124 
									"/>
				<polygon clip-path="url(#SVGID_2_)" fill="#FFFFFF" points="188.207,117.64 188.465,117.788 110.844,129.124 109.559,129.124 
									"/>
				<polygon clip-path="url(#SVGID_2_)" fill="#FFFFFF" points="188.465,117.788 188.719,117.94 112.137,129.124 110.844,129.124 
									"/>
				<polygon clip-path="url(#SVGID_2_)" fill="#FFFFFF" points="188.719,117.94 188.977,118.093 113.422,129.124 112.137,129.124 
									"/>
				<polygon clip-path="url(#SVGID_2_)" fill="#FFFFFF" points="188.977,118.093 189.176,118.21 189.176,118.249 114.715,129.124 
					113.422,129.124 				"/>
				<polygon clip-path="url(#SVGID_2_)" fill="#FFFFFF" points="189.176,118.437 116,129.124 114.715,129.124 189.176,118.249 				
					"/>
				<polygon clip-path="url(#SVGID_2_)" fill="#FFFFFF" points="189.176,118.628 117.293,129.124 116,129.124 189.176,118.437 				
					"/>
				<polygon clip-path="url(#SVGID_2_)" fill="#FFFFFF" points="189.176,118.815 118.578,129.124 117.293,129.124 189.176,118.628 
									"/>
				<polygon clip-path="url(#SVGID_2_)" fill="#FFFFFF" points="189.176,119.003 119.871,129.124 118.578,129.124 189.176,118.815 
									"/>
				<polygon clip-path="url(#SVGID_2_)" fill="#FFFFFF" points="189.176,119.19 121.156,129.124 119.871,129.124 189.176,119.003 
									"/>
				<polygon clip-path="url(#SVGID_2_)" fill="#FFFFFF" points="189.176,119.382 122.449,129.124 121.156,129.124 189.176,119.19 
									"/>
				<polygon clip-path="url(#SVGID_2_)" fill="#FFFFFF" points="189.176,119.569 123.738,129.124 122.449,129.124 189.176,119.382 
									"/>
				<polygon clip-path="url(#SVGID_2_)" fill="#FFFFFF" points="189.176,119.757 125.027,129.124 123.738,129.124 189.176,119.569 
									"/>
				<polygon clip-path="url(#SVGID_2_)" fill="#FFFFFF" points="125.027,129.124 189.176,119.757 189.176,129.124 				"/>
			</g>
		</g>
	</g>
	<g>
		<g>
			<path fill="#06357A" d="M113.001,114.913h-4.556v-0.32c1.162-0.051,1.406-0.321,1.406-1.451v-7.188
				c0-0.911-0.356-1.164-1.406-1.215v-0.32h4.556v0.32c-1.181,0-1.593,0.236-1.593,1.366v7.155c0,0.995,0.3,1.333,1.593,1.333
				V114.913z"/>
			<path fill="#06357A" d="M131.262,115.031l-9.712-9.146v7.238c0,1.216,0.3,1.469,1.894,1.469v0.32h-4.35v-0.32h0.075
				c1.163,0,1.538-0.354,1.538-1.131v-8.302c-0.431-0.271-0.918-0.405-1.575-0.422v-0.32h2.943l8.831,8.284v-6.715
				c0-1.029-0.337-1.216-1.837-1.249v-0.32h4.387v0.32c-1.406,0-1.706,0.22-1.706,0.877v9.416H131.262z"/>
			<path fill="#06357A" d="M157.061,111.116h-0.356c-0.15-1.198-0.506-1.333-1.275-1.333h-3.168v3.595
				c0,0.775,0.318,0.928,1.012,0.928h2.887c1.312,0,1.706-0.456,2.175-1.907h0.338l-0.3,2.515h-9.956v-0.32h0.525
				c1.5,0,1.763-0.371,1.763-1.384v-7.121c0-0.944-0.244-1.35-1.5-1.35h-0.413v-0.32h8.999l0.15,2.345h-0.338
				c-0.243-1.434-0.712-1.737-1.387-1.737h-3.956v4.15h3.355c0.676,0,0.994-0.287,1.088-1.266h0.356V111.116z"/>
			<path fill="#06357A" d="M166.266,106.104c0-1.097-0.318-1.366-1.425-1.366h-0.375v-0.32c0.693-0.034,1.612-0.068,2.644-0.102
				c1.031-0.034,2.175-0.051,3.149-0.051c4.95,0,7.144,2.261,7.144,5.045c0,2.549-2.193,5.603-6.937,5.603h-6v-0.32h0.318
				c1.013,0,1.481-0.253,1.481-1.232V106.104z M167.822,113.664c0,0.692,0.056,0.929,1.537,0.929c2.512,0,3.562-0.321,4.725-1.367
				c0.693-0.607,1.556-1.906,1.556-3.645c0-1.249-0.394-2.633-1.499-3.628c-0.863-0.776-2.194-1.367-4.819-1.367
				c-0.769,0-1.274,0.051-1.499,0.067V113.664z"/>
			<path fill="#06357A" d="M197.744,104.418v0.32c-1.256,0.017-1.706,0.473-1.706,1.553v4.556c0,2.092-1.481,4.336-5.55,4.336
				c-3.581,0-5.418-1.839-5.418-4.252v-4.927c0-1.08-0.338-1.249-1.612-1.266v-0.32h4.818v0.32h-0.169
				c-1.031,0-1.481,0.253-1.481,1.231v4.691c0,2.277,1.481,3.645,4.274,3.645c2.119,0,4.275-0.793,4.275-3.662v-3.932
				c0-1.619-0.281-1.906-1.838-1.974v-0.32H197.744z"/>
			<path fill="#06357A" d="M214.749,107.185c-0.618-1.569-2.23-2.599-4.274-2.599c-3.131,0-5.081,2.042-5.081,4.877
				c0,3.054,2.438,5.298,5.287,5.298c1.481,0,3.3-0.455,4.575-2.497h0.355c-0.243,0.76-0.75,1.806-1.199,2.464
				c-1.2-0.152-2.025,0.455-4.237,0.455c-3.807,0-6.544-2.261-6.544-5.382c0-3.274,2.812-5.637,6.731-5.637
				c2.362,0,3.374,0.676,3.956,0.676c0.206,0,0.3-0.051,0.337-0.102h0.281l0.169,2.446H214.749z"/>
			<path fill="#06357A" d="M225.061,110.256l-1.088,2.649c-0.131,0.32-0.375,0.826-0.375,1.062c0,0.456,0.488,0.625,1.52,0.625h0.3
				v0.32h-4.331v-0.32c1.219-0.018,1.425-0.203,2.024-1.671l3.412-8.386l-0.168-0.372h1.631l3.918,9.365
				c0.375,0.895,0.77,1.063,1.707,1.063v0.32h-5.156v-0.32h0.487c1.068,0,1.463-0.102,1.463-0.574c0-0.27-0.132-0.522-0.207-0.691
				l-1.256-3.071H225.061z M226.973,105.582l-1.594,3.932h3.244L226.973,105.582z"/>
			<path fill="#06357A" d="M245.516,113.36c0,0.911,0.337,1.232,1.48,1.232h0.694v0.32h-5.906v-0.32h0.693
				c1.144,0,1.481-0.321,1.481-1.232v-8.335h-3.263c-0.75,0-1.087,0.388-1.368,1.873h-0.338l0.301-2.734h0.355
				c0.02,0.102,0.094,0.169,0.207,0.203c0.112,0.033,0.243,0.051,0.374,0.051h9.019c0.263,0,0.544-0.051,0.581-0.254h0.356
				l0.3,2.734h-0.337c-0.281-1.485-0.619-1.873-1.369-1.873h-3.262V113.36z"/>
			<path fill="#06357A" d="M261.17,114.913h-4.556v-0.32c1.162-0.051,1.406-0.321,1.406-1.451v-7.188
				c0-0.911-0.356-1.164-1.406-1.215v-0.32h4.556v0.32c-1.181,0-1.594,0.236-1.594,1.366v7.155c0,0.995,0.301,1.333,1.594,1.333
				V114.913z"/>
			<path fill="#06357A" d="M274.463,115.183c-3.675,0-6.768-2.126-6.768-5.281c0-3.357,2.868-5.737,6.861-5.737
				c3.544,0,6.581,2.177,6.581,5.215C281.138,112.787,278.101,115.183,274.463,115.183z M274.069,104.586
				c-3.3,0-4.612,2.768-4.612,4.793c0,3.155,2.381,5.382,5.399,5.382c3.057,0,4.519-2.43,4.519-4.825
				C279.375,106.797,277.163,104.586,274.069,104.586z"/>
			<path fill="#06357A" d="M299.549,115.031l-9.712-9.146v7.238c0,1.216,0.3,1.469,1.894,1.469v0.32h-4.35v-0.32h0.075
				c1.162,0,1.537-0.354,1.537-1.131v-8.302c-0.432-0.271-0.919-0.405-1.575-0.422v-0.32h2.944l8.83,8.284v-6.715
				c0-1.029-0.337-1.216-1.837-1.249v-0.32h4.387v0.32c-1.406,0-1.706,0.22-1.706,0.877v9.416H299.549z"/>
		</g>
		<g>
			<path fill="#06357A" d="M117.856,90.731l-11.572-28.849c-1.333-3.359-1.973-4.159-5.226-4.159V56.71h14.664v1.013
				c-4.906,0.106-6.079,1.227-5.066,3.679l9.599,23.889l8.425-22.022c0.586-1.493,0.907-2.56,0.907-3.306
				c0-1.6-1.333-2.24-4.959-2.24V56.71H137v1.013c-2.773,0-4.213,1.28-5.493,4.586l-10.985,28.422H117.856z"/>
			<path fill="#06357A" d="M154.489,89.878h-12.958v-1.014c3.306-0.159,4-1.013,4-4.585V61.563c0-2.879-1.013-3.679-4-3.839V56.71
				h12.958v1.013c-3.359,0-4.533,0.747-4.533,4.319v22.609c0,3.146,0.854,4.212,4.533,4.212V89.878z"/>
			<path fill="#06357A" d="M159.182,81.772c1.12,4.746,4.853,7.519,9.012,7.519c3.573,0,7.359-2.079,7.359-6.292
				c0-7.679-17.117-10.025-17.117-19.356c0-4.426,4.053-7.732,9.491-7.732c4.479,0,5.386,1.333,7.252,1.333
				c0.427,0,0.641-0.106,0.96-0.533h0.854l0.906,6.772h-0.906c-1.493-3.84-4.906-6.292-8.585-6.292c-3.52,0-5.973,2.026-5.973,5.013
				c0,7.571,17.117,9.598,17.117,19.409c0,5.227-4.64,9.119-10.878,9.119c-2.934,0-6.666-1.44-7.412-1.44
				c-0.48,0-0.854,0.267-1.066,0.587h-0.907l-1.119-8.105H159.182z"/>
			<path fill="#06357A" d="M195.975,89.878h-12.958v-1.014c3.307-0.159,4-1.013,4-4.585V61.563c0-2.879-1.014-3.679-4-3.839V56.71
				h12.958v1.013c-3.359,0-4.532,0.747-4.532,4.319v22.609c0,3.146,0.853,4.212,4.532,4.212V89.878z"/>
			<path fill="#06357A" d="M217.784,90.731c-10.451,0-19.25-6.719-19.25-16.691c0-10.611,8.159-18.129,19.517-18.129
				c10.079,0,18.717,6.879,18.717,16.477C236.768,83.159,228.13,90.731,217.784,90.731z M216.665,57.244
				c-9.386,0-13.118,8.745-13.118,15.144c0,9.972,6.772,17.011,15.357,17.011c8.691,0,12.852-7.679,12.852-15.251
				C231.756,64.229,225.463,57.244,216.665,57.244z"/>
			<path fill="#06357A" d="M273.135,90.251L245.513,61.35v22.876c0,3.839,0.854,4.639,5.386,4.639v1.014h-12.371v-1.014h0.214
				c3.306,0,4.372-1.119,4.372-3.572V59.057c-1.227-0.853-2.613-1.28-4.479-1.333V56.71h8.372l25.116,26.182V61.669
				c0-3.252-0.96-3.839-5.226-3.946V56.71h12.478v1.013c-3.999,0-4.853,0.693-4.853,2.773v29.754H273.135z"/>
			<path fill="#06357A" d="M283.639,81.772c1.12,4.746,4.853,7.519,9.012,7.519c3.573,0,7.359-2.079,7.359-6.292
				c0-7.679-17.117-10.025-17.117-19.356c0-4.426,4.053-7.732,9.491-7.732c4.479,0,5.386,1.333,7.252,1.333
				c0.427,0,0.641-0.106,0.96-0.533h0.854l0.906,6.772h-0.906c-1.493-3.84-4.906-6.292-8.585-6.292c-3.52,0-5.973,2.026-5.973,5.013
				c0,7.571,17.117,9.598,17.117,19.409c0,5.227-4.64,9.119-10.878,9.119c-2.934,0-6.666-1.44-7.412-1.44
				c-0.48,0-0.854,0.267-1.066,0.587h-0.907l-1.119-8.105H283.639z"/>
		</g>
		<g>
			<g>
				<rect x="100.694" y="96.549" fill="#06357A" width="206.341" height="0.391"/>
			</g>
		</g>
	</g>
</g>
</svg>
